<svg baseProfile="full" height="100%" version="1.1" viewBox="0,-1,901,901" width="100%" xmlns="http://www.w3.org/2000/svg" xmlns:ev="http://www.w3.org/2001/xml-events" xmlns:xlink="http://www.w3.org/1999/xlink"><defs><clipPath id="LOGO_CLIPPATH"><rect height="901" width="901" x="0" y="-1" /></clipPath></defs><g clip-path="url(#LOGO_CLIPPATH )" id="Logo_GROUP"><g id="PathGroup"><polyline fill="none" points="0.0,0.0 18.0,18.0 80.0,80.0 149.0,149.0 154.0,154.0 237.0,237.0 289.0,289.0 312.0,312.0 387.0,387.0 436.0,436.0 487.0,487.0 511.0,511.0 589.0,589.0 605.0,605.0 674.0,674.0 731.0,731.0 763.0,763.0 809.0,809.0 900.0,900.0" stroke="#009EE0" stroke-width="0.3" /></g><g id="PathGroup"><polyline fill="none" points="-8.58066130346,-4.73415796053 10.6824670219,14.299498532 67.1120920086,78.2965248449 137.315222108,147.35501805 141.061006897,152.742042337 227.259209616,239.262079284 279.182581463,290.902181186 302.865457966,314.21813927 377.3594424,392.29713594 428.178513878,442.069131308 480.597090423,494.681324687 507.413264359,518.926242959 584.688356516,596.899982941 602.165877709,612.907449073 676.097012252,686.829752126 732.41159971,740.495650913 766.562357389,772.343961142 812.361400092,816.259544712 905.313850772,909.631354524" stroke="#009EE0" stroke-width="0.6" /></g><g id="PathGroup"><polyline fill="none" points="-17.1613226069,-9.46831592106 3.36493404384,10.598997064 54.2241840171,76.5930496898 125.630444216,145.710036099 128.122013794,151.484084674 217.518419231,241.524158567 269.365162925,292.804362372 293.730915931,316.436278541 367.7188848,397.59427188 420.357027755,448.138262616 474.194180846,502.362649374 503.826528719,526.852485918 580.376713032,604.799965882 599.331755419,620.814898146 678.194024505,699.659504252 733.82319942,749.991301826 770.124714779,781.687922285 815.722800183,823.519089424 910.627701544,919.262709049" stroke="#009EE0" stroke-width="0.9" /></g><g id="PathGroup"><polyline fill="none" points="-25.7419839104,-14.2024738816 -3.95259893424,6.89849559599 41.3362760257,74.8895745348 113.945666324,144.065054149 115.183020691,150.226127012 207.777628847,243.786237851 259.547744388,294.706543557 284.596373897,318.654417811 358.078327201,402.891407819 412.535541633,454.207393924 467.791271269,510.043974061 500.239793078,534.778728877 576.065069548,612.699948823 596.497633128,628.722347219 680.291036757,712.489256378 735.23479913,759.486952739 773.687072168,791.031883427 819.084200275,830.778634136 915.941552316,928.894063573" stroke="#009EE0" stroke-width="1.2" /></g><g id="PathGroup"><polyline fill="none" points="-34.3226452139,-18.9366318421 -11.2701319123,3.19799412799 28.4483680342,73.1860993797 102.260888432,142.420072198 102.244027588,148.968169349 198.036838462,246.048317134 249.730325851,296.608724743 275.461831863,320.872557081 348.437769601,408.188543759 404.71405551,460.276525233 461.388361692,517.725298748 496.653057437,542.704971836 571.753426065,620.599931764 593.663510838,636.629796292 682.388049009,725.319008504 736.64639884,768.982603651 777.249429557,800.37584457 822.445600367,838.038178847 921.255403088,938.525418097" stroke="#009EE0" stroke-width="1.5" /></g><g id="PathGroup"><polyline fill="none" points="-42.9033065173,-23.6707898027 -18.5876648904,-0.502507340015 15.5604600428,71.4826242246 90.5761105405,140.775090248 89.3050344852,147.710211686 188.296048078,248.310396418 239.912907314,298.510905929 266.327289828,323.090696351 338.797212001,413.485679699 396.892569388,466.345656541 454.985452115,525.406623436 493.066321797,550.631214795 567.441782581,628.499914705 590.829388547,644.537245365 684.485061261,738.14876063 738.05799855,778.478254564 780.811786947,809.719805712 825.807000458,845.297723559 926.56925386,948.156772621" stroke="#009EE0" stroke-width="1.8" /></g><g id="PathGroup"><polyline fill="none" points="-51.4839678208,-28.4049477632 -25.9051978685,-4.20300880802 2.67255205131,69.7791490695 78.8913326487,139.130108298 76.3660413822,146.452254023 178.555257693,250.572475702 230.095488776,300.413087115 257.192747794,325.308835622 329.156654401,418.782815639 389.071083265,472.414787849 448.582542538,533.087948123 489.479586156,558.557457754 563.130139097,636.399897646 587.995266257,652.444694438 686.582073514,750.978512756 739.46959826,787.973905477 784.374144336,819.063766854 829.16840055,852.557268271 931.883104632,957.788127146" stroke="#009EE0" stroke-width="2.1" /></g><g id="PathGroup"><polyline fill="none" points="-60.0646291242,-33.1391057237 -33.2227308466,-7.90351027602 -10.2153559401,68.0756739145 67.2065547568,137.485126347 63.4270482792,145.19429636 168.814467309,252.834554985 220.278070239,302.315268301 248.058205759,327.526974892 319.516096801,424.079951579 381.249597143,478.483919157 442.179632961,540.76927281 485.892850516,566.483700713 558.818495613,644.299880587 585.161143966,660.352143511 688.679085766,763.808264882 740.88119797,797.46955639 787.936501726,828.407727997 832.529800642,859.816812983 937.196955404,967.41948167" stroke="#009EE0" stroke-width="2.4" /></g><g id="PathGroup"><polyline fill="none" points="-68.6452904277,-37.8732636842 -40.5402638247,-11.604011744 -23.1032639316,66.3721987594 55.5217768649,135.840144397 50.4880551763,143.936338698 159.073676924,255.096634269 210.460651702,304.217449487 238.923663725,329.745114162 309.875539202,429.377087519 373.42811102,484.553050465 435.776723384,548.450597497 482.306114875,574.409943672 554.506852129,652.199863528 582.327021676,668.259592584 690.776098018,776.638017008 742.29279768,806.965207303 791.498859115,837.751689139 835.891200734,867.076357695 942.510806176,977.050836194" stroke="#009EE0" stroke-width="2.7" /></g><g id="PathGroup"><polyline fill="none" points="-77.2259517312,-42.6074216448 -47.8577968027,-15.304513212 -35.991171923,64.6687236043 43.836998973,134.195162446 37.5490620733,142.678381035 149.33288654,257.358713552 200.643233164,306.119630672 229.789121691,331.963253433 300.234981602,434.674223458 365.606624898,490.622181773 429.373813807,556.131922184 478.719379234,582.33618663 550.195208645,660.099846469 579.492899385,676.167041657 692.87311027,789.467769134 743.70439739,816.460858216 795.061216504,847.095650281 839.252600825,874.335902407 947.824656948,986.682190719" stroke="#009EE0" stroke-width="3.0" /></g><g id="PathGroup"><polyline fill="none" points="-55.1753297808,-19.00501468 -48.8790799145,62.9652484492 32.1522210811,132.550180496 24.6100689703,141.420423372 139.592096155,259.620792836 190.825814627,308.021811858 220.654579656,334.181392703 290.594424002,439.971359398 357.785138775,496.691313082 422.97090423,563.813246871 475.132643594,590.262429589 545.883565161,667.99982941 576.658777095,684.07449073 694.970122523,802.29752126 745.1159971,825.956509128 798.623573894,856.439611424 842.614000917,881.595447119 953.13850772,996.313545243" stroke="#009EE0" stroke-width="3.3" /></g><g id="PathGroup"><polyline fill="none" points="-61.7669879059,61.2617732941 20.4674431892,130.905198545 11.6710758674,140.162465709 129.851305771,261.88287212 181.00839609,309.923993044 211.520037622,336.399531973 280.953866402,445.268495338 349.963652653,502.76044439 416.567994653,571.494571558 471.545907953,598.188672548 541.571921678,675.899812351 573.824654804,691.981939803 697.067134775,815.127273386 746.52759681,835.452160041 802.185931283,865.783572566 845.975401009,888.85499183 958.452358492,1005.94489977" stroke="#009EE0" stroke-width="3.6" /></g><g id="PathGroup"><polyline fill="none" points="-74.6548958974,59.5582981391 8.78266529731,129.260216595 -1.26791723561,138.904508047 120.110515386,264.144951403 171.190977553,311.82617423 202.385495588,338.617671244 271.313308802,450.565631278 342.14216653,508.829575698 410.165085076,579.175896245 467.959172312,606.114915507 537.260278194,683.799795292 570.990532514,699.889388876 699.164147027,827.957025512 747.93919652,844.947810954 805.748288672,875.127533709 849.3368011,896.114536542 963.766209264,1015.57625429" stroke="#009EE0" stroke-width="3.9" /></g><g id="PathGroup"><polyline fill="none" points="-87.5428038888,57.854822984 -2.90211259458,127.615234645 -14.2069103386,137.646550384 110.369725002,266.407030687 161.373559015,313.728355416 193.250953553,340.835810514 261.672751203,455.862767218 334.320680408,514.898707006 403.762175499,586.857220933 464.372436672,614.041158466 532.94863471,691.699778233 568.156410223,707.796837949 701.261159279,840.786777638 749.35079623,854.443461867 809.310646062,884.471494851 852.698201192,903.374081254 969.080060036,1025.20760882" stroke="#009EE0" stroke-width="4.2" /></g><g id="PathGroup"><polyline fill="none" points="-100.43071188,56.1513478289 -14.5868904865,125.970252694 -27.1459034415,136.388592721 100.628934617,268.66910997 151.556140478,315.630536602 184.116411519,343.053949784 252.032193603,461.159903157 326.499194285,520.967838314 397.359265922,594.53854562 460.785701031,621.967401425 528.636991226,699.599761174 565.322287932,715.704287022 703.358171532,853.616529764 750.76239594,863.93911278 812.873003451,893.815455993 856.059601284,910.633625966 974.393910808,1034.83896334" stroke="#009EE0" stroke-width="4.5" /></g><g id="PathGroup"><polyline fill="none" points="-113.318619872,54.4478726738 -26.2716683784,124.325270744 -40.0848965445,135.130635058 90.8881442326,270.931189254 141.738721941,317.532717787 174.981869485,345.272089054 242.391636003,466.457039097 318.677708163,527.036969622 390.956356345,602.219870307 457.19896539,629.893644384 524.325347742,707.499744115 562.488165642,723.611736095 705.455183784,866.44628189 752.17399565,873.434763693 816.43536084,903.159417136 859.421001375,917.893170678 979.70776158,1044.47031786" stroke="#009EE0" stroke-width="4.8" /></g><g id="PathGroup"><polyline fill="none" points="-126.206527863,52.7443975188 -37.9564462703,122.680288793 -53.0238896475,133.872677395 81.1473538481,273.193268538 131.921303403,319.434898973 165.84732745,347.490228325 232.751078403,471.754175037 310.85622204,533.106100931 384.553446768,609.901194994 453.61222975,637.819887343 520.013704258,715.399727056 559.654043351,731.519185168 707.552196036,879.276034016 753.58559536,882.930414606 819.99771823,912.503378278 862.782401467,925.15271539 985.021612352,1054.10167239" stroke="#009EE0" stroke-width="5.1" /></g><g id="PathGroup"><polyline fill="none" points="-139.094435855,51.0409223637 -49.6412241621,121.035306843 -65.9628827504,132.614719733 71.4065634636,275.455347821 122.103884866,321.337080159 156.712785416,349.708367595 223.110520803,477.051310977 303.034735918,539.175232239 378.150537191,617.582519681 450.025494109,645.746130302 515.702060774,723.299709997 556.819921061,739.426634241 709.649208288,892.105786142 754.997195071,892.426065518 823.560075619,921.847339421 866.143801559,932.412260102 990.335463124,1063.73302691" stroke="#009EE0" stroke-width="5.4" /></g><g id="PathGroup"><polyline fill="none" points="-78.9018758534,131.35676207 61.6657730791,277.717427105 112.286466329,323.239261345 147.578243381,351.926506865 213.469963204,482.348446917 295.213249795,545.244363547 371.747627614,625.263844368 446.438758469,653.672373261 511.390417291,731.199692938 553.98579877,747.334083314 711.746220541,904.935538268 756.408794781,901.921716431 827.122433009,931.191300563 869.505201651,939.671804814 995.649313896,1073.36438144" stroke="#009EE0" stroke-width="5.7" /></g><g id="PathGroup"><polyline fill="none" points="-91.8408689564,130.098804407 51.9249826946,279.979506388 102.469047792,325.141442531 138.443701347,354.144646136 203.829405604,487.645582857 287.391763673,551.313494855 365.344718037,632.945169055 442.852022828,661.59861622 507.078773807,739.099675879 551.15167648,755.241532387 713.843232793,917.765290393 757.820394491,911.417367344 830.684790398,940.535261705 872.866601742,946.931349525 1000.96316467,1082.99573596" stroke="#009EE0" stroke-width="6.0" /></g><g id="PathGroup"><polyline fill="none" points="-104.779862059,128.840846744 42.1841923101,282.241585672 92.6516292542,327.043623717 129.309159313,356.362785406 194.188848004,492.942718796 279.57027755,557.382626163 358.94180846,640.626493742 439.265287187,669.524859179 502.767130323,746.99965882 548.317554189,763.14898146 715.940245045,930.595042519 759.231994201,920.913018257 834.247147787,949.879222848 876.228001834,954.190894237 1006.27701544,1092.62709049" stroke="#009EE0" stroke-width="6.3" /></g><g id="PathGroup"><polyline fill="none" points="-117.718855162,127.582889081 32.4434019256,284.503664956 82.834210717,328.945804902 120.174617278,358.580924676 184.548290404,498.239854736 271.748791428,563.451757471 352.538898883,648.307818429 435.678551547,677.451102138 498.455486839,754.899641761 545.483431899,771.056430533 718.037257297,943.424794645 760.643593911,930.40866917 837.809505177,959.22318399" stroke="#009EE0" stroke-width="6.6" /></g><g id="PathGroup"><polyline fill="none" points="-130.657848265,126.324931419 22.7026115411,286.765744239 73.0167921797,330.847986088 111.040075244,360.799063946 174.907732804,503.536990676 263.927305305,569.52088878 346.135989306,655.989143117 432.091815906,685.377345097 494.143843355,762.799624702 542.649309608,778.963879606 720.13426955,956.254546771 762.055193621,939.904320083 841.371862566,968.567145133" stroke="#009EE0" stroke-width="6.9" /></g><g id="PathGroup"><polyline fill="none" points="-143.596841368,125.066973756 12.9618211566,289.027823523 63.1993736424,332.750167274 101.90553321,363.017203217 165.267175205,508.834126616 256.105819183,575.590020088 339.733079729,663.670467804 428.505080265,693.303588056 489.832199871,770.699607643 539.815187318,786.871328679 722.231281802,969.084298897 763.466793331,949.399970995 844.934219955,977.911106275" stroke="#009EE0" stroke-width="7.2" /></g><g id="PathGroup"><polyline fill="none" points="-156.535834471,123.809016093 3.22103077209,291.289902806 53.3819551051,334.65234846 92.7709911752,365.235342487 155.626617605,514.131262556 248.28433306,581.659151396 333.330170152,671.351792491 424.918344625,701.229831015 485.520556388,778.599590584 536.981065027,794.778777752 724.328294054,981.914051023" stroke="#009EE0" stroke-width="7.5" /></g><g id="PathGroup"><polyline fill="none" points="-169.474827574,122.55105843 -6.5197596124,293.55198209 43.5645365678,336.554529646 83.6364491409,367.453481757 145.986060005,519.428398495 240.462846938,587.728282704 326.927260575,679.033117178 421.331608984,709.156073974 481.208912904,786.499573525 534.146942737,802.686226825 726.425306306,994.743803149" stroke="#009EE0" stroke-width="7.8" /></g><g id="PathGroup"><polyline fill="none" points="-182.413820677,121.293100767 -16.2605499969,295.814061374 33.7471180305,338.456710832 74.5019071065,369.671621028 136.345502405,524.725534435 232.641360815,593.797414012 320.524350998,686.714441865 417.744873343,717.082316932 476.89726942,794.399556466 531.312820446,810.593675898 728.522318559,1007.57355528" stroke="#009EE0" stroke-width="8.1" /></g><g id="PathGroup"><polyline fill="none" points="-195.35281378,120.035143105 -26.0013403814,298.076140657 23.9296994932,340.358892017 65.3673650722,371.889760298 126.704944805,530.022670375 224.819874693,599.86654532 314.121441421,694.395766552 414.158137703,725.008559891 472.585625936,802.299539407 528.478698156,818.501124971 730.619330811,1020.4033074" stroke="#009EE0" stroke-width="8.4" /></g><g id="PathGroup"><polyline fill="none" points="-208.291806883,118.777185442 -35.7421307659,300.338219941 14.1122809559,342.261073203 56.2328230378,374.107899568 117.064387206,535.319806315 216.99838857,605.935676629 307.718531844,702.077091239 410.571402062,732.93480285 468.273982452,810.199522348 525.644575865,826.408574044 732.716343063,1033.23305953" stroke="#009EE0" stroke-width="8.7" /></g><g id="PathGroup"><polyline fill="none" points="-221.230799986,117.519227779 -45.4829211504,302.600299224 4.29486241866,344.163254389 47.0982810034,376.326038839 107.423829606,540.616942255 209.176902448,612.004807937 301.315622267,709.758415926 406.984666421,740.861045809 463.962338968,818.099505289 522.810453574,834.316023117 734.813355315,1046.06281165" stroke="#009EE0" stroke-width="9.0" /></g><g id="PathGroup"><polyline fill="none" points="-234.169793089,116.261270116 -55.2237115349,304.862378508 -5.52255611863,346.065435575 37.9637389691,378.544178109 97.783272006,545.914078195 201.355416325,618.073939245 294.91271269,717.439740613 403.397930781,748.787288768 459.650695484,825.99948823 519.976331284,842.22347219 736.910367568,1058.89256378" stroke="#009EE0" stroke-width="9.3" /></g><g id="PathGroup"><polyline fill="none" points="-64.9645019194,307.124457792 -15.3399746559,347.967616761 28.8291969347,380.762317379 88.1427144062,551.211214134 193.533930203,624.143070553 288.509803113,725.121065301 399.81119514,756.713531727 455.339052001,833.899471171 517.142208993,850.130921263 739.00737982,1071.72231591" stroke="#009EE0" stroke-width="9.6" /></g><g id="PathGroup"><polyline fill="none" points="-74.7052923039,309.386537075 -25.1573931932,349.869797947 19.6946549003,382.980456649 78.5021568064,556.508350074 185.71244408,630.212201861 282.106893536,732.802389988 396.2244595,764.639774686 451.027408517,841.799454112 514.308086703,858.038370336 741.104392072,1084.55206803" stroke="#009EE0" stroke-width="9.9" /></g><g id="PathGroup"><polyline fill="none" points="-84.4460826884,311.648616359 -34.9748117305,351.771979132 10.560112866,385.19859592 68.8615992066,561.805486014 177.890957958,636.281333169 275.703983959,740.483714675 392.637723859,772.566017645 446.715765033,849.699437053 511.473964412,865.945819409 743.201404324,1097.38182016" stroke="#009EE0" stroke-width="10.2" /></g><g id="PathGroup"><polyline fill="none" points="-94.1868730729,313.910695643 -44.7922302678,353.674160318 1.4255708316,387.41673519 59.2210416068,567.102621954 170.069471835,642.350464477 269.301074382,748.165039362 389.050988218,780.492260604 442.404121549,857.599419994 508.639842122,873.853268482 745.298416577,1110.21157228" stroke="#009EE0" stroke-width="10.5" /></g><g id="PathGroup"><polyline fill="none" points="-103.927663457,316.172774926 -54.6096488051,355.576341504 -7.70897120276,389.63487446 49.580484007,572.399757894 162.247985713,648.419595786 262.898164805,755.846364049 385.464252578,788.418503563 438.092478065,865.499402935 505.805719831,881.760717555 747.395428829,1123.04132441" stroke="#009EE0" stroke-width="10.8" /></g><g id="PathGroup"><polyline fill="none" points="-64.4270673424,357.47852269 -16.8435132371,391.853013731 39.9399264072,577.696893833 154.42649959,654.488727094 256.495255228,763.527688736 381.877516937,796.344746522 433.780834581,873.399385876 502.971597541,889.668166628 749.492441081,1135.87107654" stroke="#009EE0" stroke-width="11.1" /></g><g id="PathGroup"><polyline fill="none" points="-74.2444858796,359.380703876 -25.9780552715,394.071153001 30.2993688074,582.994029773 146.605013468,660.557858402 250.092345651,771.209013423 378.290781296,804.270989481 429.469191097,881.299368817 500.13747525,897.575615701 751.589453333,1148.70082866" stroke="#009EE0" stroke-width="11.4" /></g><g id="PathGroup"><polyline fill="none" points="-84.0619044169,361.282885061 -35.1125973059,396.289292271 20.6588112076,588.291165713 138.783527345,666.62698971 243.689436074,778.89033811 374.704045656,812.19723244 425.157547614,889.199351758 497.30335296,905.483064774 753.686465586,1161.53058079" stroke="#009EE0" stroke-width="11.7" /></g><g id="PathGroup"><polyline fill="none" points="-93.8793229542,363.185066247 -44.2471393402,398.507431542 11.0182536078,593.588301653 130.962041223,672.696121018 237.286526497,786.571662798 371.117310015,820.123475399 420.84590413,897.099334699 494.469230669,913.390513847 755.783477838,1174.36033291" stroke="#009EE0" stroke-width="12.0" /></g><g id="PathGroup"><polyline fill="none" points="-103.696741492,365.087247433 -53.3816813746,400.725570812 1.37769600797,598.885437593 123.1405551,678.765252326 230.88361692,794.252987485 367.530574374,828.049718358 416.534260646,904.99931764 491.635108379,921.29796292 757.88049009,1187.19008504" stroke="#009EE0" stroke-width="12.3" /></g><g id="PathGroup"><polyline fill="none" points="-62.516223409,402.943710082 -8.26286159183,604.182573533 115.319068978,684.834383635 224.480707343,801.934312172 363.943838734,835.975961317 412.222617162,912.899300581 488.800986088,929.205411994 759.977502342,1200.01983716" stroke="#009EE0" stroke-width="12.6" /></g><g id="PathGroup"><polyline fill="none" points="-71.6507654433,405.161849352 -17.9034191916,609.479709472 107.497582855,690.903514943 218.077797766,809.615636859 360.357103093,843.902204276 407.910973678,920.799283522 485.966863797,937.112861067 762.074514595,1212.84958929" stroke="#009EE0" stroke-width="12.9" /></g><g id="PathGroup"><polyline fill="none" points="-80.7853074777,407.379988623 -27.5439767914,614.776845412 99.6760967329,696.972646251 211.674888189,817.296961546 356.770367453,851.828447234 403.599330194,928.699266463 483.132741507,945.02031014 764.171526847,1225.67934142" stroke="#009EE0" stroke-width="13.2" /></g><g id="PathGroup"><polyline fill="none" points="-89.919849512,409.598127893 -37.1845343912,620.073981352 91.8546106105,703.041777559 205.271978612,824.978286233 353.183631812,859.754690193 399.28768671,936.599249404 480.298619216,952.927759213 766.268539099,1238.50909354" stroke="#009EE0" stroke-width="13.5" /></g><g id="PathGroup"><polyline fill="none" points="-99.0543915464,411.816267163 -46.825091991,625.371117292 84.033124488,709.110908867 198.869069035,832.65961092 349.596896171,867.680933152 394.976043227,944.499232345 477.464496926,960.835208286 768.365551351,1251.33884567" stroke="#009EE0" stroke-width="13.8" /></g><g id="PathGroup"><polyline fill="none" points="-108.188933581,414.034406434 -56.4656495908,630.668253232 76.2116383655,715.180040175 192.466159458,840.340935607 346.010160531,875.607176111 390.664399743,952.399215286 474.630374635,968.742657359" stroke="#009EE0" stroke-width="14.1" /></g><g id="PathGroup"><polyline fill="none" points="-66.1062071906,635.965389171 68.390152243,721.249171484 186.063249881,848.022260294 342.42342489,883.53341907 386.352756259,960.299198227 471.796252345,976.650106432" stroke="#009EE0" stroke-width="14.4" /></g><g id="PathGroup"><polyline fill="none" points="-75.7467647904,641.262525111 60.5686661205,727.318302792 179.660340305,855.703584982 338.836689249,891.459662029 382.041112775,968.199181168" stroke="#009EE0" stroke-width="14.7" /></g><g id="PathGroup"><polyline fill="none" points="-85.3873223902,646.559661051 52.747179998,733.3874341 173.257430728,863.384909669 335.249953609,899.385904988 377.729469291,976.099164109" stroke="#009EE0" stroke-width="15.0" /></g><g id="PathGroup"><polyline fill="none" points="-95.02787999,651.856796991 44.9256938755,739.456565408 166.854521151,871.066234356 331.663217968,907.312147947 373.417825807,983.99914705" stroke="#009EE0" stroke-width="15.3" /></g><g id="PathGroup"><polyline fill="none" points="-104.66843759,657.153932931 37.104207753,745.525696716 160.451611574,878.747559043 328.076482327,915.238390906 369.106182323,991.899129991" stroke="#009EE0" stroke-width="15.6" /></g><g id="PathGroup"><polyline fill="none" points="-114.30899519,662.451068871 29.2827216305,751.594828024 154.048701997,886.42888373 324.489746687,923.164633865 364.79453884,999.799112932" stroke="#009EE0" stroke-width="15.9" /></g><g id="PathGroup"><polyline fill="none" points="-123.949552789,667.74820481 21.4612355081,757.663959333 147.64579242,894.110208417 320.903011046,931.090876824 360.482895356,1007.69909587" stroke="#009EE0" stroke-width="16.2" /></g><g id="PathGroup"><polyline fill="none" points="-133.590110389,673.04534075 13.6397493856,763.733090641 141.242882843,901.791533104 317.316275406,939.017119783 356.171251872,1015.59907881" stroke="#009EE0" stroke-width="16.5" /></g><g id="PathGroup"><polyline fill="none" points="-143.230667989,678.34247669 5.81826326308,769.802221949 134.839973266,909.472857791 313.729539765,946.943362742 351.859608388,1023.49906176" stroke="#009EE0" stroke-width="16.8" /></g><g id="PathGroup"><polyline fill="none" points="-152.871225589,683.63961263 -2.00322285941,775.871353257 128.437063689,917.154182478 310.142804124,954.869605701 347.547964904,1031.3990447" stroke="#009EE0" stroke-width="17.1" /></g><g id="PathGroup"><polyline fill="none" points="-162.511783189,688.93674857 -9.8247089819,781.940484565 122.034154112,924.835507166 306.556068484,962.79584866 343.23632142,1039.29902764" stroke="#009EE0" stroke-width="17.4" /></g><g id="PathGroup"><polyline fill="none" points="-172.152340788,694.23388451 -17.6461951044,788.009615873 115.631244535,932.516831853 302.969332843,970.722091619" stroke="#009EE0" stroke-width="17.7" /></g><g id="PathGroup"><polyline fill="none" points="-181.792898388,699.531020449 -25.4676812269,794.078747182 109.228334958,940.19815654 299.382597202,978.648334578" stroke="#009EE0" stroke-width="18.0" /></g><g id="PathGroup"><polyline fill="none" points="-191.433455988,704.828156389 -33.2891673494,800.14787849 102.825425381,947.879481227 295.795861562,986.574577537" stroke="#009EE0" stroke-width="18.3" /></g><g id="PathGroup"><polyline fill="none" points="-201.074013588,710.125292329 -41.1106534719,806.217009798 96.4225158036,955.560805914 292.209125921,994.500820495" stroke="#009EE0" stroke-width="18.6" /></g><g id="PathGroup"><polyline fill="none" points="-210.714571188,715.422428269 -48.9321395944,812.286141106 90.0196062267,963.242130601 288.62239028,1002.42706345" stroke="#009EE0" stroke-width="18.9" /></g><g id="PathGroup"><polyline fill="none" points="-220.355128787,720.719564209 -56.7536257168,818.355272414 83.6166966497,970.923455288" stroke="#009EE0" stroke-width="19.2" /></g><g id="PathGroup"><polyline fill="none" points="-229.995686387,726.016700148 -64.5751118393,824.424403722 77.2137870727,978.604779975" stroke="#009EE0" stroke-width="19.5" /></g><g id="PathGroup"><polyline fill="none" points="-72.3965979618,830.49353503 70.8108774957,986.286104663" stroke="#009EE0" stroke-width="19.8" /></g><g id="PathGroup"><polyline fill="none" points="-80.2180840843,836.562666339 64.4079679187,993.96742935" stroke="#009EE0" stroke-width="20.1" /></g><g id="PathGroup"><polyline fill="none" points="-88.0395702068,842.631797647 58.0050583417,1001.64875404" stroke="#009EE0" stroke-width="20.4" /></g><g id="PathGroup"><polyline fill="none" points="-95.8610563293,848.700928955 51.6021487647,1009.33007872" stroke="#009EE0" stroke-width="20.7" /></g><g id="PathGroup"><polyline fill="none" points="-103.682542452,854.770060263 45.1992391877,1017.01140341" stroke="#009EE0" stroke-width="21.0" /></g><g id="PathGroup"><polyline fill="none" points="-111.504028574,860.839191571 38.7963296107,1024.6927281" stroke="#009EE0" stroke-width="21.3" /></g><g id="PathGroup"><polyline fill="none" points="-119.325514697,866.908322879 32.3934200337,1032.37405279" stroke="#009EE0" stroke-width="21.6" /></g><g id="PathGroup"><polyline fill="none" points="-127.147000819,872.977454188 25.9905104568,1040.05537747" stroke="#009EE0" stroke-width="21.9" /></g><g id="PathGroup"><polyline fill="none" points="-134.968486942,879.046585496 19.5876008798,1047.73670216" stroke="#009EE0" stroke-width="22.2" /></g><g id="PathGroup"><polyline fill="none" points="-142.789973064,885.115716804 13.1846913028,1055.41802685" stroke="#009EE0" stroke-width="22.5" /></g><g id="PathGroup"><polyline fill="none" points="-150.611459187,891.184848112 6.78178172579,1063.09935153" stroke="#009EE0" stroke-width="22.8" /></g><g id="PathGroup"><polyline fill="none" points="-158.432945309,897.25397942 0.378872148802,1070.78067622" stroke="#009EE0" stroke-width="23.1" /></g><g id="PathGroup"><polyline fill="none" points="-166.254431432,903.323110728 -6.02403742819,1078.46200091" stroke="#009EE0" stroke-width="23.4" /></g><g id="PathGroup"><polyline fill="none" points="-174.075917554,909.392242037 -12.4269470052,1086.1433256" stroke="#009EE0" stroke-width="23.7" /></g><g id="PathGroup"><polyline fill="none" points="-181.897403677,915.461373345 -18.8298565822,1093.82465028" stroke="#009EE0" stroke-width="24.0" /></g><g id="PathGroup"><polyline fill="none" points="-189.718889799,921.530504653 -25.2327661592,1101.50597497" stroke="#009EE0" stroke-width="24.3" /></g><g id="PathGroup"><polyline fill="none" points="-197.540375922,927.599635961 -31.6356757361,1109.18729966" stroke="#009EE0" stroke-width="24.6" /></g><g id="PathGroup"><polyline fill="none" points="-205.361862044,933.668767269 -38.0385853131,1116.86862434" stroke="#009EE0" stroke-width="24.9" /></g><g id="PathGroup"><polyline fill="none" points="-213.183348167,939.737898577 -44.4414948901,1124.54994903" stroke="#009EE0" stroke-width="25.2" /></g><g id="PathGroup"><polyline fill="none" points="-221.004834289,945.807029886 -50.8444044671,1132.23127372" stroke="#009EE0" stroke-width="25.5" /></g><g id="PathGroup"><polyline fill="none" points="-228.826320412,951.876161194 -57.2473140441,1139.9125984" stroke="#009EE0" stroke-width="25.8" /></g><g id="PathGroup"><polyline fill="none" points="-236.647806534,957.945292502 -63.6502236211,1147.59392309" stroke="#009EE0" stroke-width="26.1" /></g><g id="PathGroup"><polyline fill="none" points="-244.469292657,964.01442381 -70.0531331981,1155.27524778" stroke="#009EE0" stroke-width="26.4" /></g></g></svg>
